<svg xmlns="http://www.w3.org/2000/svg" xmlns:xlink="http://www.w3.org/1999/xlink" width="333" height="200"><path fill="#fff" fill-opacity=".45" d="M0 0v200l334.708.916V0Zm38.68 46.133h55.383v54.53c.008.136.04.288.047.422.69 16.988-18.067 52.767-45.53 52.773-9.6-22.585 1.68 3.408-9.695-22.797 13.902 0 28.867-15.916 28.867-29.508l-29.07-.016zm67.148.008h55.438v54.648c.005.092.028.198.03.29.702 16.996-18.1 52.79-45.594 52.79-9.606-22.6 1.7 3.413-9.71-22.797 13.922 0 28.914-15.924 28.914-29.5v-.008h-29.078z"/><use xlink:href="#C" width="100%" height="100%" x="72.024" y="82.46" fill="#dbe0e4" fill-opacity=".99" transform="matrix(-.5633 0 0 -.5633 74.517 237.166)"/></svg>