<svg xmlns="http://www.w3.org/2000/svg" xmlns:xlink="http://www.w3.org/1999/xlink" width="50" height="50">
	<use xlink:href="#C" x="72.024" y="82.46" fill="#dbe0e4" fill-opacity=".99" transform="rotate(180 37.169 43.53) scale(.5633)"/>
	<path fill="#fff" fill-opacity=".45" d="M0 0v50h50V0Zm9.67 11.533h13.844l.002 13.584c.003.051.01.104.011.154.173 4.248-4.518 13.194-11.384 13.194l-2.422-5.7c3.476 0 7.217-3.98 7.217-7.374v-.006H9.67Zm16.787.002h13.86v13.643c.001.033.006.068.007.101.176 4.239-4.522 13.188-11.398 13.188l-.002.002c-2.401-5.65.424.853-2.426-5.7 3.48 0 7.227-3.971 7.227-7.367v-.011h-7.268z"/>
</svg>