<svg xmlns="http://www.w3.org/2000/svg" xmlns:xlink="http://www.w3.org/1999/xlink" height="656" width="19"><style><![CDATA[.B{stroke-width:.75}.C{fill:none}.D{stroke-linecap:round}.E{stroke:#000}.F{stroke-opacity:.28}.G{stroke:#fff}.H{stroke-width:.5}.I{stroke:#3c2500}.J{stroke-width:.88}.K{fill:url(#B)}.L{stroke-linejoin:round}.M{fill-rule:evenodd}.N{fill:#fff}.O{fill:#b6ddeb}.P{stroke-linecap:square}]]></style><defs><linearGradient id="A" xlink:href="#S"><stop stop-color="#ffe35d" offset="0"/><stop stop-color="#f8f000" offset=".5"/><stop stop-color="#ffa700" offset="1"/></linearGradient><radialGradient id="B" cy="6.68" cx="6.74" r="7.13" xlink:href="#S"><stop stop-color="#ffe35d" offset="0"/><stop stop-color="#ffe35d" offset=".5"/><stop stop-color="#ffa700" offset="1"/></radialGradient><radialGradient id="C" cy="6.68" cx="6.74" r="7.13" xlink:href="#S"><stop stop-color="#fcffbb" offset="0"/><stop stop-color="#fcffbb" offset=".5"/><stop stop-color="#c7ff00" offset="1"/></radialGradient><radialGradient id="D" cy="6.68" cx="6.74" gradientTransform="matrix(1.1351 0 0 1.1351 1.5782 459.43)" r="7.13" xlink:href="#S"><stop stop-color="#f3b7c7" offset="0"/><stop stop-color="#ec9faa" offset=".56"/><stop stop-color="#e37d83" offset="1"/></radialGradient><radialGradient id="E" xlink:href="#A" cy="6.68" cx="6.74" gradientTransform="matrix(.95123 0 0 .95125 50.783 461.93)" r="7.13"/><radialGradient id="F" xlink:href="#A" cy="6.68" cx="6.74" gradientTransform="matrix(1.1351 0 0 1.1351 75.348 484.42)" r="7.13"/><radialGradient id="G" cy="6.68" cx="6.74" r="7.13" xlink:href="#S"><stop stop-color="#ffc668" offset="0"/><stop stop-color="#ff9970" offset=".5"/><stop stop-color="#ff7e06" offset="1"/></radialGradient><radialGradient id="H" cy="6.68" cx="6.74" gradientTransform="matrix(1.1351 0 0 1.1351 75.348 434.42)" r="7.13" xlink:href="#S"><stop stop-color="#fff" offset="0"/><stop stop-color="#fff" offset=".18"/><stop stop-color="#ffe8ba" offset="1"/></radialGradient><path id="I" d="M53.38 468.62c1.18-1.66 1.2-1.67 2.25 0"/><path id="J" d="M39.75 367c0 1.8-.7 3.5-1.98 4.77s-2.98 1.98-4.77 1.98-3.5-.7-4.77-1.98-1.98-2.98-1.98-4.77c0-3.73 3.02-6.75 6.75-6.75s6.75 3.02 6.75 6.75z"/><path id="K" d="M28.88 368.4c0 4.56 8.27 4.52 8.25-.03l-8.25.03z"/><path id="L" d="M56.88 370.27c1.75.88 3.5.58 5.25-1.02"/><path id="M" d="M26.25 392c0 1.8.7 3.5 1.98 4.77s2.98 1.98 4.77 1.98 3.5-.7 4.77-1.98 1.98-2.98 1.98-4.77c0-3.73-3.02-6.75-6.75-6.75s-6.75 3.02-6.75 6.75z"/><path id="N" d="M40.53 385.26l-.02-.01c-7.8 11.33 7.75 11.34.02.01z"/><path id="O" d="M13.35 6.68a6.6 6.6 0 0 1-6.61 6.61A6.6 6.6 0 0 1 .13 6.68 6.6 6.6 0 0 1 6.74.07a6.6 6.6 0 0 1 6.61 6.61z"/><path id="P" d="M36.68 446.14v-1.76h-4.3c.45.46 1 .84 1.06 1.75.08 2.3 3.33 2.1 3.24.01z"/><path id="Q" d="M3.9 388.37l3.22 2.12-3.25 2.13"/><path id="R" d="M12.1 388.37l-3.22 2.12 3.25 2.13"/><linearGradient id="S" gradientUnits="userSpaceOnUse"/></defs><g transform="translate(0 156)"><g transform="translate(0 -515)"><path d="M13.35 6.68a6.6 6.6 0 0 1-6.61 6.61A6.6 6.6 0 0 1 .13 6.68 6.6 6.6 0 0 1 6.74.07a6.6 6.6 0 0 1 6.61 6.61z" transform="matrix(1.1351 0 0 1.1351 .348 359.42)" class="I J K"/><g class="C"><path d="M14.75 367c0 1.8-.7 3.5-1.98 4.77S9.8 373.75 8 373.75s-3.5-.7-4.77-1.98-1.98-2.98-1.98-4.77c0-3.73 3.02-6.75 6.75-6.75s6.75 3.02 6.75 6.75z" class="F G H"/><g class="B D E"><path d="M4.88 369.26c2.08 1.95 4.17 2.02 6.25-.01m-5.75-5.38v1.75"/><path d="M10.63 363.87v1.75"/></g></g></g><path d="M144.65 903.62z" class="C E"/><g transform="translate(-50 -175)"><path d="M50.7 459.42c-.08.01-.17.04-.25.06-.23 2.86.73 4.23 1.35 6.03-.43.84-.75 1.76-.88 2.76-.47 3.5 2.8 6.3 6.28 6.3 3.5 0 7.02-2.72 6.28-6.3l-.7-2.4c.35-2.36 4.2-2.85 4.17-3.74-1.88-1.38-5.2-.28-6.9.63a7.3 7.3 0 0 0-5.52-.13c-1.34-1.62-2.67-3.34-3.83-3.23z" stroke-width=".83" fill="url(#E)" class="I L"/><g class="E"><path d="M57.5 468.97v1.07" class="C"/><g class="L M"><path d="M56.38 471.38l1.12 1.25 1.13-1.25h-2.25z" class="B"/><path d="M63.68 462.03l.4 1.2 2.02-.92c-.7-.38-1.42-.42-2.4-.28zm-12.7-1.86v1.32l.2.8 1.3-1.2-1.5-.93z"/></g></g><g class="C"><path d="M62.57 468.3c.77 3.1-2.4 5.4-5.4 5.4s-5.87-2.32-5.4-5.4c.47-2.94 2.4-5.2 5.4-5.2s4.62 2.1 5.4 5.2z" class="F G"/><path d="M53.25 470.75c.5.17.87.47 1 1-.83-.1-1.02-.5-1-1zm8 0c-.5.17-.87.47-1 1 .83-.1 1.02-.5 1-1z" stroke="#d03800" stroke-width="1.5" class="L"/><g class="B D E"><use xlink:href="#I"/><use xlink:href="#I" x="6"/></g></g></g><g transform="translate(-25 -495)"><path d="M13.35 6.68a6.6 6.6 0 0 1-6.61 6.61A6.6 6.6 0 0 1 .13 6.68 6.6 6.6 0 0 1 6.74.07a6.6 6.6 0 0 1 6.61 6.61z" transform="matrix(1.1351 0 0 1.1351 25.348 359.42)" class="I J K"/><use xlink:href="#J" class="C F G H"/><g class="B E"><use xlink:href="#K" class="L M N"/><path d="M30.38 363.87v1.75m5.25-1.75v1.75" class="C D"/></g></g><g transform="translate(-50 -475)"><path d="M13.35 6.68a6.6 6.6 0 0 1-6.61 6.61A6.6 6.6 0 0 1 .13 6.68 6.6 6.6 0 0 1 6.74.07a6.6 6.6 0 0 1 6.61 6.61z" transform="matrix(1.1351 0 0 1.1351 50.348 359.42)" class="I J K"/><g class="C"><use xlink:href="#J" x="25" class="F G H"/><g class="B D E"><use xlink:href="#L"/><use xlink:href="#I" x="1" y="-103"/><use xlink:href="#I" x="6" y="-103"/></g></g></g><g transform="translate(-75 -455)"><path d="M13.35 6.68a6.6 6.6 0 0 1-6.61 6.61A6.6 6.6 0 0 1 .13 6.68 6.6 6.6 0 0 1 6.74.07a6.6 6.6 0 0 1 6.61 6.61z" transform="matrix(1.1351 0 0 1.1351 75.348 359.42)" class="I J K"/><g class="C"><use xlink:href="#J" x="50" class="F G H"/><g class="B D E"><path d="M79.88 370.74c2.08-1.95 4.17-2.02 6.25.01m-5.75-6.88v1.75"/><path d="M85.63 363.87v1.75"/></g></g></g><g transform="translate(-100 -435)"><path d="M13.35 6.68a6.6 6.6 0 0 1-6.61 6.61A6.6 6.6 0 0 1 .13 6.68 6.6 6.6 0 0 1 6.74.07a6.6 6.6 0 0 1 6.61 6.61z" transform="matrix(1.1351 0 0 1.1351 100.35 359.42)" class="I J K"/><g class="C"><use xlink:href="#J" x="75" class="F G H"/><path d="M105.88 370.62l4.25-.01m-4-4h-2.75m9.25 0h-2.75" class="B D E"/></g></g><g transform="translate(0 -440)"><path d="M13.35 6.68a6.6 6.6 0 0 1-6.61 6.61A6.6 6.6 0 0 1 .13 6.68 6.6 6.6 0 0 1 6.74.07a6.6 6.6 0 0 1 6.61 6.61z" transform="matrix(1.1351 0 0 1.1351 .348 384.42)" class="I J K"/><g class="C"><path d="M14.75 392c0 1.8-.7 3.5-1.98 4.77S9.8 398.75 8 398.75s-3.5-.7-4.77-1.98-1.98-2.98-1.98-4.77c0-3.73 3.02-6.75 6.75-6.75s6.75 3.02 6.75 6.75z" class="F G H"/><g class="B D E"><path d="M10.63 388.87v1.75"/><use xlink:href="#I" x="-49" y="-78"/><path d="M9.13 395.14c-1.75.88-3.5.58-5.25-1.02"/></g></g></g><g transform="translate(-25 -420)"><path d="M13.35 6.68a6.6 6.6 0 0 1-6.61 6.61A6.6 6.6 0 0 1 .13 6.68 6.6 6.6 0 0 1 6.74.07a6.6 6.6 0 0 1 6.61 6.61z" transform="matrix(-1.1351 0 0 1.1351 40.652 384.42)" class="I J K"/><g class="C"><use xlink:href="#M" class="F G H"/><g class="B D E"><path d="M34.13 395.27c-1.75.88-3.5.58-5.25-1.02m7.75-3.63c-1.18-1.66-1.2-1.67-2.25 0"/><path d="M31.63 390.62c-1.18-1.66-1.2-1.67-2.25 0"/></g></g><use xlink:href="#N" class="E H L M O"/></g><g transform="translate(-50 -400)"><path d="M13.35 6.68a6.6 6.6 0 0 1-6.61 6.61A6.6 6.6 0 0 1 .13 6.68 6.6 6.6 0 0 1 6.74.07a6.6 6.6 0 0 1 6.61 6.61z" transform="matrix(1.1351 0 0 1.1351 50.348 384.42)" class="I J K"/><g class="C"><use xlink:href="#J" x="25" y="25" class="F G H"/><g class="B D E"><path d="M55.38 395.62l5.25-.01"/><path d="M53.38 392.62h3.75l-3.27-2.25m8.77 2.25h-3.75l3.27-2.25" class="L"/></g></g></g><g transform="translate(-75 -380)"><path d="M13.35 6.68a6.6 6.6 0 0 1-6.61 6.61A6.6 6.6 0 0 1 .13 6.68 6.6 6.6 0 0 1 6.74.07a6.6 6.6 0 0 1 6.61 6.61z" transform="matrix(1.1351 0 0 1.1351 75.348 384.42)" class="I J K"/><g class="C"><use xlink:href="#J" x="50" y="25" class="F G H"/><path d="M79.38 389.87v1.75m7.25-1.75v1.75m-.5 2.98c-1.75-.88-3.5-.58-5.25 1.02" class="B D E"/></g></g><g transform="translate(-100 -360)"><path d="M13.35 6.68a6.6 6.6 0 0 1-6.61 6.61A6.6 6.6 0 0 1 .13 6.68 6.6 6.6 0 0 1 6.74.07a6.6 6.6 0 0 1 6.61 6.61z" transform="matrix(1.1351 0 0 1.1351 100.35 384.42)" class="I J K"/><g class="C"><use xlink:href="#J" x="75" y="25" class="F G H"/><path d="M105.38 389.37v1.75m5.24-1.75v1.75m-4.74 4.5l4.25-.01" class="B D E"/></g></g><path d="M13.35 6.68a6.6 6.6 0 0 1-6.61 6.61A6.6 6.6 0 0 1 .13 6.68 6.6 6.6 0 0 1 6.74.07a6.6 6.6 0 0 1 6.61 6.61z" transform="matrix(1.1351 0 0 1.1351 .348 44.42)" class="I J K"/><g class="C"><path d="M14.75 52c0 1.8-.7 3.5-1.98 4.77S9.8 58.75 8 58.75s-3.5-.7-4.77-1.98S1.25 53.8 1.25 52c0-3.73 3.02-6.75 6.75-6.75s6.75 3.02 6.75 6.75z" class="F G H"/><path d="M5.88 55.62l4.25-.01" class="B D E"/></g><path d="M13.35 6.68a6.6 6.6 0 0 1-6.61 6.61A6.6 6.6 0 0 1 .13 6.68 6.6 6.6 0 0 1 6.74.07a6.6 6.6 0 0 1 6.61 6.61z" transform="matrix(-1.1351 0 0 1.1351 15.652 64.42)" class="I J K"/><g class="C"><path d="M1.25 72c0 1.8.7 3.5 1.98 4.77S6.2 78.75 8 78.75s3.5-.7 4.77-1.98 1.98-2.98 1.98-4.77c0-3.73-3.02-6.75-6.75-6.75S1.25 68.27 1.25 72z" class="F G H"/><path d="M10.13 75.62l-4.25-.01" class="B D E"/></g><g transform="translate(-50 -325)"><use xlink:href="#O" transform="matrix(1.1351 0 0 1.1351 50.348 409.42)" stroke="#323c00" fill="url(#C)" class="J"/><g class="C"><use xlink:href="#J" x="25" y="50" class="F G H"/><g class="E B D"><path d="M55.88 420.62l4.25-.01"/><path d="m56.625 414.38-2.25 2.25"/><path d="M56.63 416.62l-2.25-2.25m7.25.01l-2.25 2.25"/><path d="m61.625 416.62-2.25-2.25"/></g></g></g><g transform="translate(-75 -305)"><path d="M13.35 6.68a6.6 6.6 0 0 1-6.61 6.61A6.6 6.6 0 0 1 .13 6.68 6.6 6.6 0 0 1 6.74.07a6.6 6.6 0 0 1 6.61 6.61z" transform="matrix(1.1351 0 0 1.1351 75.348 409.42)" class="I J K"/><use xlink:href="#J" x="50" y="50" class="C F G H"/><g class="B E"><path d="M80.88 421.62l4.25-.01" class="C D"/><path d="M80.62 417.5c0 .62-.5 1.12-1.12 1.12s-1.12-.5-1.12-1.12.5-1.12 1.12-1.12 1.12.5 1.12 1.12zm7-.5c0 .9-.73 1.62-1.62 1.62s-1.62-.73-1.62-1.62.73-1.62 1.62-1.62 1.62.73 1.62 1.62z" class="N"/></g></g><g transform="translate(-100 -285)"><path d="M13.35 6.68a6.6 6.6 0 0 1-6.61 6.61A6.6 6.6 0 0 1 .13 6.68 6.6 6.6 0 0 1 6.74.07a6.6 6.6 0 0 1 6.61 6.61z" transform="matrix(1.1351 0 0 1.1351 100.35 409.42)" class="I J K"/><g class="C"><use xlink:href="#J" x="75" y="50" class="F G H"/><path d="M111.12 420.6c-1.75-.88-3.5-.58-5.25 1.02m-.24-6h-1.75m8.25 0h-1.75" class="B D E"/></g><g stroke="#0091f4" stroke-width="1.5" class="M"><path d="M103.75 416.25v2.5" fill="#45a0c1"/><path d="M112.25 416.25v2.5" fill="#3b8fc7"/></g></g><g transform="translate(0 -290)"><path d="M13.35 6.68a6.6 6.6 0 0 1-6.61 6.61A6.6 6.6 0 0 1 .13 6.68 6.6 6.6 0 0 1 6.74.07a6.6 6.6 0 0 1 6.61 6.61z" transform="matrix(1.1351 0 0 1.1351 .348 434.42)" class="I J K"/><g class="C"><path d="M14.75 442c0 1.8-.7 3.5-1.98 4.77S9.8 448.75 8 448.75s-3.5-.7-4.77-1.98-1.98-2.98-1.98-4.77c0-3.73 3.02-6.75 6.75-6.75s6.75 3.02 6.75 6.75z" class="F G H"/><path d="M5.38 438.87v1.75m5.25-1.75v1.75" class="B D E"/></g><path d="M10.63 445c0 .7-.28 1.36-.77 1.86s-1.16.77-1.86.77-1.36-.28-1.86-.77-.77-1.16-.77-1.86.28-1.36.77-1.86 1.16-.77 1.86-.77 1.36.28 1.86.77.77 1.16.77 1.86z" stroke-width=".79" class="E L M N"/></g><g transform="translate(-75 -230)"><path d="M90.5 442a7.5 7.5 0 1 1-15 0c0-.44.04-.87.1-1.3.2-1.14-.34-4.94.3-5.85.7-.95 2.6 1 3.65.47 1.03-.53 2.2-.83 3.43-.83 1.25 0 2.42.3 3.45.84 1 .53 2.95-1.4 3.63-.5.73.98.16 4.83.34 6.1.05.35.07.7.07 1.06z" fill="url(#H)" class="I"/><g class="C"><use xlink:href="#J" x="50" y="75" class="F G H"/><path d="M79.38 440.88v1.25m7-1.25v1.25m-6.58 2.25c-1.7 2 2.18 3.4 3.13.87.87 2.53 4.8 1.17 3.4-.87" class="B D E"/></g></g><g transform="translate(-50 -250)"><path d="M13.35 6.68a6.6 6.6 0 0 1-6.61 6.61A6.6 6.6 0 0 1 .13 6.68 6.6 6.6 0 0 1 6.74.07a6.6 6.6 0 0 1 6.61 6.61z" transform="matrix(1.1351 0 0 1.1351 50.348 434.42)" class="I J K"/><g class="C"><use xlink:href="#J" x="25" y="75" class="F G H"/><path d="M55.38 439.87v1.75m5.25-1.75v1.75m-5.25 4.46l.8-1.7h3.75l.7 1.75" class="B D E"/></g></g><g transform="translate(-25 -270)"><path d="M13.35 6.68a6.6 6.6 0 0 1-6.61 6.61A6.6 6.6 0 0 1 .13 6.68 6.6 6.6 0 0 1 6.74.07a6.6 6.6 0 0 1 6.61 6.61z" transform="matrix(1.1351 0 0 1.1351 25.348 434.42)" class="I J K"/><g class="C"><use xlink:href="#J" y="75" class="F G H"/><path d="M35.63 438.87v1.75m-6.25 3.76h7.25" class="B D E"/></g><g class="B"><use xlink:href="#P" stroke="maroon" fill="#ff8080" class="L M"/><path d="M30.38 438.87v1.75" class="C D E"/></g></g><g transform="translate(0 -215)"><path d="M9.23 459.5a7.5 7.5 0 0 0-7.03 4.97c-1.54 2-3 4.52.28 5.78 1.2 2.52 3.77 4.25 6.75 4.25a7.5 7.5 0 0 0 6.63-4c3.9-1.28 2-4.1.34-6.22a7.5 7.5 0 0 0-6.97-4.78z" stroke="#601010" fill="url(#D)"/><g class="C"><g class="E D"><path d="M9.38 465.08v-2.2m3 2.24v-2.2" class="B"/><path d="M11.48 467.8v1.5"/></g><path d="M7.5 466.5h2m3 0h2" stroke="#f81880" class="D"/><path d="M15.73 467a6.5 6.5 0 0 1-6.5 6.5 6.5 6.5 0 0 1-6.5-6.5 6.5 6.5 0 1 1 13 0z" class="F G"/></g><path d="M8.73 474.5c-.2-2.3-6.93-5.4-7 0h7zm9.4-4.2c.32 1.85-4.22 5.48-5.98 3.77s1.57-4.95 2.93-5.36 2.72-.26 3.05 1.6z" stroke="#601010" fill="#d95179" class="M"/></g><g transform="translate(-25 -195)"><path d="M13.35 6.68a6.6 6.6 0 0 1-6.61 6.61A6.6 6.6 0 0 1 .13 6.68 6.6 6.6 0 0 1 6.74.07a6.6 6.6 0 0 1 6.61 6.61z" transform="matrix(1.1351 0 0 1.1351 25.348 459.42)" class="I J K"/><g class="C"><use xlink:href="#J" y="100" class="F G H"/><path d="M30.88 470.62l4.25-.01m-4-4h-2.75m9.25 0h-2.75" class="B D E"/></g><use xlink:href="#N" y="75" stroke="#226071" class="B L M O"/></g><g transform="translate(-100 -135)"><use xlink:href="#O" transform="matrix(1.1351 0 0 1.1351 100.35 459.42)" stroke="#3c0000" fill="url(#G)" class="J"/><g class="C"><use xlink:href="#J" x="75" y="100" class="F G H"/><g class="E D"><g class="B"><path d="M104.88 471.74c2.08-1.95 4.17-2.02 6.25.01m-5.75-4.95v1.4"/><path d="m110.62 466.8v1.4"/></g><path d="M106.56 467.53l-2.8-2.78m5.72 2.8l2.78-2.8" class="H L"/></g></g></g><g transform="translate(-75 -155)"><g class="I"><path d="M89.4 469.5c5.4-2.94 5.85-9.45-.9-6.03" fill="#ffc027" class="M"/><path d="M13.35 6.68a6.6 6.6 0 0 1-6.61 6.61A6.6 6.6 0 0 1 .13 6.68 6.6 6.6 0 0 1 6.74.07a6.6 6.6 0 0 1 6.61 6.61z" transform="matrix(1.1351 0 0 1.1351 75.348 459.42)" class="J K"/></g><g class="C"><use xlink:href="#J" x="50" y="100" class="F G H"/><g class="B D E"><use xlink:href="#L" x="25" y="100"/><use xlink:href="#I" x="26" y="-3"/><use xlink:href="#I" x="31" y="-3"/></g></g></g><g transform="translate(0 -140)"><path d="M13.35 6.68a6.6 6.6 0 0 1-6.61 6.61A6.6 6.6 0 0 1 .13 6.68 6.6 6.6 0 0 1 6.74.07a6.6 6.6 0 0 1 6.61 6.61z" transform="matrix(1.1351 0 0 1.1351 .348 484.42)" class="I J K"/><g class="C"><path d="M14.75 492c0 1.8-.7 3.5-1.98 4.77S9.8 498.75 8 498.75s-3.5-.7-4.77-1.98-1.98-2.98-1.98-4.77c0-3.73 3.02-6.75 6.75-6.75s6.75 3.02 6.75 6.75z" class="F G H"/><path d="M4.38 492.37v1.75m7.25-1.75v1.75m-5.75 2.5l4.25-.01" class="B D E"/></g></g><path d="M13.35 6.68a6.6 6.6 0 0 1-6.61 6.61A6.6 6.6 0 0 1 .13 6.68 6.6 6.6 0 0 1 6.74.07a6.6 6.6 0 0 1 6.61 6.61z" transform="matrix(1.1351 0 0 1.1351 .348 364.42)" class="I J K"/><path d="M14.75 372c0 1.8-.7 3.5-1.98 4.77S9.8 378.75 8 378.75s-3.5-.7-4.77-1.98-1.98-2.98-1.98-4.77c0-3.73 3.02-6.75 6.75-6.75s6.75 3.02 6.75 6.75z" class="C F G H"/><path d="M5 372v3" stroke="#3bc7a1" stroke-width="2" fill="#0091f4" class="M P"/><path d="M6.5 370.5h-3" class="C D E"/><path d="M11 372v3" stroke="#3bc7a1" stroke-width="2" fill="#0091f4" class="M P"/><g class="C D E"><path d="M12.5 370.5h-3"/><path d="M4.88 375.62l6.25-.01" class="B"/></g><path d="M13.35 6.68a6.6 6.6 0 0 1-6.61 6.61A6.6 6.6 0 0 1 .13 6.68 6.6 6.6 0 0 1 6.74.07a6.6 6.6 0 0 1 6.61 6.61z" transform="matrix(-1.1351 0 0 1.1351 15.652 384.42)" class="I J K"/><g transform="translate(-100 -210)"><path d="M13.35 6.68a6.6 6.6 0 0 1-6.61 6.61A6.6 6.6 0 0 1 .13 6.68 6.6 6.6 0 0 1 6.74.07a6.6 6.6 0 0 1 6.61 6.61z" transform="matrix(1.1351 0 0 1.1351 100.35 434.42)" class="I J K"/><g class="C"><use xlink:href="#J" x="75" y="75" class="F G H"/><path d="M104.38 442.37v1.75m7.24-1.75v1.75m-5.74 2.5l4.25-.01" class="B D E"/></g><use xlink:href="#N" x="75" y="50" stroke="#226071" class="B L M O"/></g><path d="M83 492l6.4 3.9A7.5 7.5 0 0 1 75.5 492a7.5 7.5 0 0 1 13.62-4.33L83 492z" fill="url(#F)" transform="translate(-75 -80)" class="I"/><path d="M13.3 416.18c-1.24 1.56-3.15 2.57-5.3 2.57-3.73 0-6.75-3.02-6.75-6.75s3.02-6.75 6.75-6.75c2.06 0 3.88.86 5.02 2.24" class="C F G H P"/><path d="M7 409a1 1 0 1 1-2 0 1 1 0 1 1 2 0z" class="M"/><g transform="translate(-50 65)"><path d="M13.35 6.68a6.6 6.6 0 0 1-6.61 6.61A6.6 6.6 0 0 1 .13 6.68 6.6 6.6 0 0 1 6.74.07a6.6 6.6 0 0 1 6.61 6.61z" transform="matrix(1.1351 0 0 1.1351 50.348 359.42)" class="I J K"/><use xlink:href="#J" x="25" class="C F G H"/><g class="B E"><use xlink:href="#L" y="1" class="C D"/><path d="M52.38 365.08c.23 3.34 4.9 3.45 5.25 0-2.78-1.03-4.2-.85-5.25 0zm11.25 0c-.23 3.34-4.9 3.45-5.25 0 2.78-1.03 4.2-.85 5.25 0z" fill="#1a1a1a" class="M"/></g></g><text xml:space="preserve" font-size="12" y="-47.53" x="100" font-family="Arial"><tspan x="100" y="-47.53"/></text><g class="E B"><g class="C D"><path d="M3.38 70.38h3.25v1.25m1.75-1.25h3.25v1.25m1-21.25H9.38v1.25m-1.75-1.25H4.38v1.25"/><g class="L"><use xlink:href="#Q"/><use xlink:href="#R"/></g></g><path d="M4.38 394.4c0 4.56 7.26 4.52 7.25-.03l-7.25.03z" class="L M N"/></g><path d="M13.35 6.68a6.6 6.6 0 0 1-6.61 6.61A6.6 6.6 0 0 1 .13 6.68 6.6 6.6 0 0 1 6.74.07a6.6 6.6 0 0 1 6.61 6.61z" transform="matrix(-1.1351 0 0 1.1351 15.652 384.42)" class="I J K"/><use xlink:href="#M" x="-25" class="C F G H"/><g class="B E L"><g class="C D"><use xlink:href="#Q"/><use xlink:href="#R"/></g><use xlink:href="#K" x="-25" y="26" class="M N"/></g><path d="M13.35 6.68a6.6 6.6 0 0 1-6.61 6.61A6.6 6.6 0 0 1 .13 6.68 6.6 6.6 0 0 1 6.74.07a6.6 6.6 0 0 1 6.61 6.61z" transform="matrix(-1.1351 0 0 1.1351 15.652 444.42)" class="I J K"/><g class="C"><use xlink:href="#M" x="-25" y="60" class="F G H"/><g class="B D E L"><use xlink:href="#Q" y="60"/><use xlink:href="#R" y="60"/></g><path d="M4.38 148.62c.01-1.84 2.24-1.9 2.25 0m2.75 0c.01-1.84 2.24-1.9 2.25 0" stroke="#a80" class="B D"/><path d="M4.38 454.62h7.25" class="B D E"/></g><use xlink:href="#P" x="-25" y="10.26" stroke="maroon" fill="#ff8080" class="B L M"/><g transform="translate(-75 80)"><path d="M13.35 6.68a6.6 6.6 0 0 1-6.61 6.61A6.6 6.6 0 0 1 .13 6.68 6.6 6.6 0 0 1 6.74.07a6.6 6.6 0 0 1 6.61 6.61z" transform="matrix(1.1351 0 0 1.1351 75.348 384.42)" class="I J K"/><g class="C"><use xlink:href="#J" x="50" y="25" class="F G H"/><path d="M80.38 388.87v1.75m5.25-1.75v1.75" class="B D E"/></g></g><path d="M4.5 475.56c.12-2.75 3.2-2.35 3.56-1 .38 1.37 3.7 1.43 3.75-1.3" class="B C D E"/><g transform="translate(-75 100)"><path d="M13.35 6.68a6.6 6.6 0 0 1-6.61 6.61A6.6 6.6 0 0 1 .13 6.68 6.6 6.6 0 0 1 6.74.07a6.6 6.6 0 0 1 6.61 6.61z" transform="matrix(1.1351 0 0 1.1351 75.348 384.42)" class="I J K"/><g class="C"><use xlink:href="#J" x="50" y="25" class="F G H"/><path d="M80.38 389.87v1.75m5.25-1.75v1.75" class="B D E"/><path d="M81.58 390.14l-2.6-2.58m5.46 2.58l2.6-2.6" stroke="#806600" class="B D"/></g></g><use xlink:href="#K" x="-25" y="125" class="B E L M N"/></g></svg>